<svg xmlns="http://www.w3.org/2000/svg" version="1.1" xmlns:xlink="http://www.w3.org/1999/xlink" xmlns:svgjs="http://svgjs.dev/svgjs" width="2000" height="1247" viewBox="0 0 2000 1247"><g transform="matrix(1,0,0,1,-1.2121212121212466,0.5048582995951847)"><svg viewBox="0 0 396 247" data-background-color="#ffffff" preserveAspectRatio="xMidYMid meet" height="1247" width="2000" xmlns="http://www.w3.org/2000/svg" xmlns:xlink="http://www.w3.org/1999/xlink"><g id="tight-bounds" transform="matrix(1,0,0,1,0.2400000000000091,-0.09999999999999432)"><svg viewBox="0 0 395.52 247.2" height="247.2" width="395.52"><g><svg></svg></g><g><svg viewBox="0 0 395.52 247.2" height="247.2" width="395.52"><g transform="matrix(1,0,0,1,75.54432,71.46270359109644)"><svg viewBox="0 0 244.43135999999998 104.27459281780709" height="104.27459281780709" width="244.43135999999998"><g><svg viewBox="0 0 244.43135999999998 104.27459281780709" height="104.27459281780709" width="244.43135999999998"><g><svg viewBox="0 0 244.43136 104.2745928178071" height="104.27459281780709" width="244.43135999999998"><g><svg viewBox="0 0 244.43136 104.2745928178071" height="104.2745928178071" width="244.43136"><g id="textblocktransform"><svg viewBox="0 0 244.43136 104.2745928178071" height="104.2745928178071" width="244.43136" id="textblock"><g><svg viewBox="0 0 244.43136 104.2745928178071" height="104.2745928178071" width="244.43136"><g transform="matrix(1,0,0,1,0,0)"><svg width="244.43136" viewBox="2.25 -37.022857666015625 88.83999633789062 37.90285873413086" height="104.2745928178071" data-palette-color="#fc1008"><path d="M2.25-3.32L2.25-3.32 2.25-36.18 23.34-36.91Q25.29-36.91 27-36.67 28.71-36.43 30.46-35.75 32.2-35.08 33.44-34.02 34.67-32.96 35.45-31.2 36.23-29.44 36.23-27.15L36.23-27.15Q36.23-24.1 34.89-22.2 33.54-20.31 30.86-18.85L30.86-18.85Q34.01-17.97 35.66-15.81 37.3-13.65 37.3-10.35L37.3-10.35Q37.3-7.91 36.38-5.97 35.45-4.03 33.98-2.81 32.52-1.59 30.54-0.78 28.56 0.02 26.62 0.35 24.68 0.68 22.66 0.68L22.66 0.68Q21.48 0.68 19.13 0.63 16.77 0.59 15.58 0.59L15.58 0.59Q8.79 0.59 3.13 0.78L3.13 0.78Q2.32-0.51 2.25-3.32ZM16.26-28.03L16.26-28.03Q16.26-26.93 16.33-24.76 16.41-22.58 16.41-21.48L16.41-21.48Q16.41-21.02 16.99-20.95L16.99-20.95Q17.33-21 18.18-21.11 19.02-21.22 19.51-21.29 20-21.36 20.69-21.64 21.39-21.92 21.78-22.31 22.17-22.71 22.46-23.45 22.75-24.19 22.75-25.2L22.75-25.2Q22.75-28.91 17.63-28.91L17.63-28.91Q16.6-28.74 16.43-28.56L16.43-28.56Q16.26-28.37 16.26-28.03ZM16.7-10.3L16.7-9.42Q16.7-7.62 16.89-7.62L16.89-7.62 17.68-7.62Q18.63-7.62 19.32-7.68 20.02-7.74 20.83-7.98 21.63-8.23 22.12-8.65 22.61-9.08 22.95-9.86 23.29-10.64 23.29-11.72L23.29-11.72Q23.29-12.33 23.17-12.84 23.05-13.35 22.78-13.72 22.51-14.09 22.25-14.36 22-14.62 21.52-14.81 21.04-14.99 20.74-15.1 20.43-15.21 19.82-15.28 19.21-15.36 18.95-15.38 18.68-15.41 18.02-15.44 17.36-15.48 17.19-15.48L17.19-15.48 17.19-14.55Q17.16-14.28 16.93-12.74 16.7-11.21 16.7-10.3L16.7-10.3ZM67.45 0.63L64.43-19.04Q64.33-18.38 64.05-15.94 63.77-13.5 63.43-10.82 63.08-8.13 62.67-5.43 62.25-2.73 61.72-0.98 61.18 0.78 60.64 0.78L60.64 0.78Q59.59 0.78 57.54 0.73 55.49 0.68 54.44 0.68L54.44 0.68Q49.73 0.68 45.75 0.88L45.75 0.88Q45.41 0.71 45.15 0.34 44.89-0.02 44.74-0.54 44.58-1.05 44.49-1.45 44.41-1.86 44.32-2.48 44.24-3.1 44.19-3.32L44.19-3.32Q39.96-23.46 38.96-27.83L38.96-27.83 37.25-36.04Q37.25-36.72 37.94-36.96L37.94-36.96Q38.52-36.91 39.79-36.91L39.79-36.91 41.75-36.91Q42.33-36.91 43.43-36.96 44.53-37.01 45.02-37.01L45.02-37.01Q45.48-37.04 46.38-37 47.29-36.96 47.56-36.96L47.56-36.96 48.97-36.96Q49.22-36.91 49.7-36.91L49.7-36.91 50.44-36.91Q50.88-36.79 51.32-35.23 51.76-33.67 52.15-30.93 52.54-28.2 52.78-26.16 53.02-24.12 53.33-21.23 53.64-18.33 53.64-18.29L53.64-18.29 56.74-36.87Q57.91-36.77 58.59-36.77L58.59-36.77 60.1-36.77Q62.08-36.77 65.83-36.79 69.58-36.82 71.43-36.82L71.43-36.82Q71.95-36.82 72.07-36.43L72.07-36.43 75.12-16.24Q75.58-21.8 76.27-26.42L76.27-26.42 77.73-36.33Q77.9-36.91 79.44-36.91L79.44-36.91 80.61-36.91Q80.91-36.94 81.53-36.9 82.15-36.87 82.42-36.87L82.42-36.87 84.57-36.87Q85.47-36.87 86.61-36.84 87.74-36.82 87.79-36.82L87.79-36.82 90.67-36.82Q90.89-36.82 90.96-36.49 91.04-36.16 91.09-35.4L91.09-35.4 83.23 0.54Q82.74 0.59 82.05 0.59 81.37 0.59 80.81 0.57 80.25 0.56 79.51 0.55 78.78 0.54 78.32 0.54L78.32 0.54Q77.32 0.54 75.28 0.51 73.24 0.49 72.21 0.49L72.21 0.49Q72.09 0.49 67.45 0.63L67.45 0.63Z" opacity="1" transform="matrix(1,0,0,1,0,0)" fill="#fc1008" class="undefined-text-0" data-fill-palette-color="primary" id="text-0"></path></svg></g></svg></g></svg></g></svg></g></svg></g></svg></g></svg></g><g><path d="M245.816 0c68.262 0 123.6 55.338 123.6 123.6 0 68.262-55.338 123.6-123.6 123.6-44.649 0-83.768-23.674-105.49-59.154l5.555 0c21.173 32.765 58.021 54.453 99.935 54.452 65.666 0 118.898-53.233 118.898-118.898 0-65.666-53.233-118.898-118.898-118.898-41.913 0-78.762 21.687-99.935 54.452h-5.555c21.722-35.48 60.841-59.154 105.49-59.154z" fill="#ee3e38" stroke="transparent" data-fill-palette-color="tertiary"></path></g></svg></g><defs></defs></svg><rect width="395.52" height="247.2" fill="none" stroke="none" visibility="hidden"></rect></g></svg></g></svg>